<?xml version="1.0" standalone="no"?>
<!DOCTYPE svg PUBLIC "-//W3C//DTD SVG 20010904//EN"
 "http://www.w3.org/TR/2001/REC-SVG-20010904/DTD/svg10.dtd">
<svg version="1.0" xmlns="http://www.w3.org/2000/svg"
 width="260.000000pt" height="260.000000pt" viewBox="0 0 260.000000 260.000000"
 preserveAspectRatio="xMidYMid meet">
<metadata>
Created by potrace 1.11, written by Peter Selinger 2001-2013
</metadata>
<g transform="translate(0.000000,260.000000) scale(0.100000,-0.100000)"
fill="#000000" stroke="none">
<path d="M1770 2579 c-129 -52 -219 -250 -256 -564 -8 -71 -17 -137 -19 -145
-2 -8 -7 -70 -10 -138 -6 -148 -11 -171 -39 -177 -11 -2 -91 -7 -177 -10 -174
-7 -174 -7 -184 61 -4 21 -8 49 -10 61 -2 13 -9 67 -15 120 -50 448 -149 697
-302 763 -43 18 -65 22 -123 18 -183 -12 -280 -123 -289 -331 -8 -178 20 -320
125 -639 32 -101 59 -187 59 -193 -1 -5 -23 -39 -51 -75 -63 -82 -130 -218
-165 -335 -24 -83 -27 -105 -27 -270 0 -172 1 -183 27 -250 89 -230 265 -368
566 -442 101 -25 117 -26 390 -26 250 0 297 3 381 21 172 37 291 85 395 158
142 100 247 262 263 406 15 133 5 303 -24 403 -34 120 -112 274 -182 359 -68
85 -68 86 -14 280 81 285 103 413 100 581 -2 129 -17 191 -66 262 -27 40 -49
60 -96 83 -53 27 -70 30 -146 29 -47 0 -97 -5 -111 -10z"/>
</g>
</svg>
