<?xml version="1.0" standalone="no"?>
<!DOCTYPE svg PUBLIC "-//W3C//DTD SVG 20010904//EN"
 "http://www.w3.org/TR/2001/REC-SVG-20010904/DTD/svg10.dtd">
<svg version="1.0" xmlns="http://www.w3.org/2000/svg"
 width="260.000000pt" height="260.000000pt" viewBox="0 0 260.000000 260.000000"
 preserveAspectRatio="xMidYMid meet">
<metadata>
Created by potrace 1.11, written by Peter Selinger 2001-2013
</metadata>
<g transform="translate(0.000000,260.000000) scale(0.100000,-0.100000)"
fill="#000000" stroke="none">
<path d="M1755 2574 c-123 -63 -211 -264 -244 -554 -6 -52 -15 -133 -21 -180
-5 -47 -10 -119 -10 -160 0 -41 -6 -86 -13 -100 -12 -25 -15 -25 -167 -31
-171 -7 -197 -5 -204 19 -6 18 -27 169 -46 317 -46 367 -145 597 -286 666 -38
18 -58 21 -127 17 -97 -5 -168 -37 -223 -102 -57 -66 -69 -120 -68 -291 1
-177 23 -281 123 -583 34 -101 58 -188 55 -194 -4 -6 -31 -45 -61 -86 -65 -91
-115 -193 -149 -309 -31 -104 -44 -322 -26 -438 28 -179 170 -360 352 -448
199 -98 345 -122 698 -115 194 4 253 9 327 26 215 51 344 112 457 220 88 84
126 138 165 237 26 67 27 78 28 245 0 153 -3 185 -23 254 -44 153 -113 284
-205 394 -48 57 -48 75 8 268 73 253 95 378 95 547 0 124 -3 155 -21 202 -29
79 -75 134 -138 167 -48 25 -64 28 -150 28 -67 0 -105 -5 -126 -16z"/>
</g>
</svg>
